<?xml version="1.0" ?><svg id="Outline" viewBox="0 0 512 512" xmlns="http://www.w3.org/2000/svg"><defs><style>.cls-1{fill:#262626;}</style></defs><path class="cls-1" d="M446.15,81.53a6.49,6.49,0,0,0,.11-.66c0-.15.05-.3.06-.45s0-.4,0-.6,0-.35,0-.52,0-.35,0-.52,0-.41,0-.6,0-.31-.06-.46-.06-.44-.11-.66-.06-.28-.1-.42-.11-.45-.18-.67l0-.13-.12-.32a6,6,0,0,0-.23-.59c-.07-.18-.15-.34-.22-.51l-.24-.48c-.1-.18-.2-.35-.31-.52s-.17-.28-.26-.42-.23-.33-.35-.5l-.31-.39c-.12-.15-.25-.29-.37-.43l-.38-.4-.37-.35c-.16-.14-.31-.28-.47-.4l-.36-.29c-.17-.13-.35-.25-.53-.37a3,3,0,0,0-.38-.24l-.56-.32-.45-.23c-.17-.08-.35-.17-.53-.24a5.37,5.37,0,0,0-.56-.21l-.35-.13-.13,0-.66-.17a3.2,3.2,0,0,0-.42-.1c-.23,0-.45-.08-.67-.11l-.45-.06-.62,0-.5,0-.55,0-.57,0-.48.06-.63.1-.44.11-.66.17-.12,0L74.35,182.74a11.34,11.34,0,0,0-2.44,20.49L220.6,293.74l90.51,148.69a11.32,11.32,0,0,0,9.68,5.44,10.19,10.19,0,0,0,1.35-.08,11.33,11.33,0,0,0,9.46-7.8L445.84,82.75l0-.12c.07-.22.13-.45.18-.68S446.12,81.67,446.15,81.53ZM317.56,409.42,243.85,288.31l131-132.22a11.34,11.34,0,1,0-16.11-16L228.24,271.84,104.92,196.77l312.62-100Z"/></svg>